<svg id="Layer_1" data-name="Layer 1" xmlns="http://www.w3.org/2000/svg" viewBox="0 0 600 600">
  <defs>
    <style>
      .cls-1 {
        fill: #fff;
      }

      .cls-2 {
        fill: #271c19;
      }

      .cls-3 {
        fill: #010101;
      }
    </style>
  </defs>
  <g>
    <path class="cls-1" d="M2698.06,892.11v599.6H2098.67c-.05-.69-.13-1.38-.13-2.06q0-297.9,0-595.81c0-.35,0-.7,0-1.05,0-.56.21-.83.79-.79.35,0,.7,0,1,0h595.31C2696.47,892,2697.27,892.07,2698.06,892.11Zm-427.29,217.05h0a.6.6,0,0,0-.3.6h0a.68.68,0,0,0-.28.6h0a.24.24,0,0,0-.18.29l-.13.29a.29.29,0,0,0-.21.33l0,.09c-.18.12-.33.25-.3.5l-.7,1.14c-1.85,3.1-3.89,6-7.11,7.9a22.87,22.87,0,0,0-4.23,3.06,4.88,4.88,0,0,0-1.67,3.85,14.56,14.56,0,0,0,1.86,6.85,8.19,8.19,0,0,0,8.76,4,19,19,0,0,0,5.54-1.72,34.42,34.42,0,0,1,10.91-2.89,22.72,22.72,0,0,1,9.82,1.42.47.47,0,0,0,.44.19.21.21,0,0,0,.25.09.25.25,0,0,0,.32.12l.35.19c0,.23-.07.36-.32.37h-.88a10.45,10.45,0,0,0-5.6.1,118.53,118.53,0,0,0,7.15,16.19,88.32,88.32,0,0,0,10.51,15.79,50.51,50.51,0,0,0,8.83,8.27c.37.27.7.73,1.28.61.31-4.7.59-9.36,2.29-13.79a1.71,1.71,0,0,1,.09.76,50.75,50.75,0,0,0,.66,14.61c1.05,5.94,2.74,11.62,6.33,16.63a29.77,29.77,0,0,0,17.4,12.12,1.68,1.68,0,0,1,1.15.54,26.31,26.31,0,0,1-4.9-.23c.82,2.76,1.58,5.3,2.36,7.94l4.32-2.74a8.6,8.6,0,0,1-.61,1,82,82,0,0,0-5.52,7.08,51.94,51.94,0,0,0-6,10.5,17.47,17.47,0,0,0-1.45,6.68c0,2.15.05,4.3,0,6.45-.14,8.19-.25,16.38-.88,24.55a28.81,28.81,0,0,1-.74,5.93,4.73,4.73,0,0,0-.06,2.36,25.64,25.64,0,0,0,3.63,8.8A8.14,8.14,0,0,1,2334,1289a18,18,0,0,0,3.08,6.76,3.56,3.56,0,0,0,4.4,1.15,6,6,0,0,0,2.26-1.89c.25-.28.26-.84.83-.82a5.8,5.8,0,0,1-5,5.14,8.42,8.42,0,0,1-1.94.06.82.82,0,0,0-.7.15,3.43,3.43,0,0,0-.36,2.73c.3.84.94.87,1.69.87,4.29,0,8.59,0,12.89,0,1.29,0,1.3,0,1.48-1.25.84-6.08,1.65-12.16,2.53-18.24,1.3-8.94,2.45-17.89,3.62-26.85,1.13-8.61,2.08-17.25,3.11-25.87a3.87,3.87,0,0,0,0-1.94l-9.76,4-.13-.27,6-4.43c5.88-4.31,11.6-8.82,17-13.67a25.69,25.69,0,0,0,7-9.22c1.32-3.18,2.54-6.4,3.83-9.59a25.62,25.62,0,0,1,3.76-6.61,11.29,11.29,0,0,1,3.22-2.76.61.61,0,0,1-.1.69,27.38,27.38,0,0,0-4.72,12.93,36.17,36.17,0,0,1-1.82,8.47c-.11.3-.36.6-.08,1,8.11.25,16.24.14,24.28-1.4a44.87,44.87,0,0,0,12.23-3.84c2.66-1.36,2.16-.62,1.89-3.58-.78-8.67.28-17,4.3-24.87.73-1.42,1.71-2.68,2.44-4.1.21,0,.27.13.32.28-.13.22-.27.42-.38.64a38.35,38.35,0,0,0-3.86,15.39,61.12,61.12,0,0,0,.33,11.94,2.79,2.79,0,0,1-.5,2.11,20.2,20.2,0,0,1-1.29,1.64,24.87,24.87,0,0,1-5.22,4.2c-1,.62-1,.63-.23,1.53a118.64,118.64,0,0,0,8.79,9.56c.46.45.85,1.09,1.69,1.22-.26-2.06-.5-4-.74-6a.34.34,0,0,1,.52-.07,141.29,141.29,0,0,0,4.91,17.83c.7,2,1.72,3.93,2.39,6,2,5.89,2.21,12,1.77,18.1-.18-.82-.3-1.65-.4-2.48a35.18,35.18,0,0,0-1.26-6.59,1.62,1.62,0,0,0-.49-1.42,3.24,3.24,0,0,0,0,1.42c0,.45-.06.89-.08,1.34a99.13,99.13,0,0,1-2.65,19.25,64.41,64.41,0,0,1-9.25,21.13c-.28.4-.78.76-.73,1.39a28.74,28.74,0,0,0,7.93.68,10.38,10.38,0,0,0,1.77-.29,2.21,2.21,0,0,0,1.58-1.23c.53-1.08,1.14-2.11,1.66-3.19a121.72,121.72,0,0,0,9.43-26.73,105.1,105.1,0,0,0,2.59-23.17,13.31,13.31,0,0,1,.32-3.39c.28.08.3.3.37.48a217.93,217.93,0,0,1,7.53,24.88,92.4,92.4,0,0,1,2,11.19c.16,1.52.3,3,.48,4.81,1.58-2,2.08-4.13,2.69-6.24a13.16,13.16,0,0,1-3,10.17,12.82,12.82,0,0,0-2.89,4.68c-.41,1.4.1,2,1.54,1.82l10.29-1.06c1.43-.14,1.46-.15,1.27-1.51-.62-4.45-1.28-8.89-1.89-13.34q-1.29-9.35-2.53-18.7-1-7.79-2-15.59c-.58-4.71-1.1-9.43-1.28-14.17a2.78,2.78,0,0,0-.53-1.5,45,45,0,0,1-3.89-7.07c-.12-.28-.11-.71-.66-.76a66.22,66.22,0,0,0-4.82,8.89.56.56,0,0,1-.56,0,1.11,1.11,0,0,0,.19-.83,1.15,1.15,0,0,0,.22-.74l.14-.6c.12-.07.19-.16.11-.3,1.12-3.24,2.18-6.52,3.51-9.68,2.33-5.51,5-10.86,7.51-16.29a86.61,86.61,0,0,0,5-13.12,46.92,46.92,0,0,0,1.6-17.92,28,28,0,0,0-7.67-16.35,39.26,39.26,0,0,0-14.46-9.35,70.19,70.19,0,0,0-13.95-3.85,103.1,103.1,0,0,0-14.13-1.52,162,162,0,0,0-25.86,1.14c-.38,0-.81,0-1.17.38a82.79,82.79,0,0,1,8.84,8c0,.32.67.65,0,1a35.81,35.81,0,0,0-6.46-4.31,63.16,63.16,0,0,0-25.74-7.73,175.31,175.31,0,0,0-25-.63c-.3,0-.71-.19-.93.32,2.38,2.7,5.65,4,8.78,5.59a12.59,12.59,0,0,1-3.74-.39c-5.24-1.37-9.62-4.28-13.69-7.71-2.34-2-4.36-4.25-6.51-6.39-3.71-3.71-7.63-7.19-11.36-10.86a3.88,3.88,0,0,0-3.28-1.25,52.49,52.49,0,0,1-7.31,0,1.47,1.47,0,0,1,1-.42,42.28,42.28,0,0,0,13.87-5.4,15.29,15.29,0,0,0,5.73-5.78,18.35,18.35,0,0,0,.85-14.4.8.8,0,0,0-.87-.64c-2.27,0-4.64-.35-6.37,1.7a3.07,3.07,0,0,1-.62.42,46.44,46.44,0,0,1-5.35,3.52,88.49,88.49,0,0,1,7.12-6.3,32.65,32.65,0,0,0,5.77-5.62,35.74,35.74,0,0,0,6.65-13.61,90.56,90.56,0,0,0,2.43-19.88c.09-2.94.27-5.89.41-8.83a11.49,11.49,0,0,0,0-2.81c-.52,2-1,4-1.39,6.07-1.12,5.47-2.12,11-3.59,16.36-.94,3.46-1.86,6.93-3.89,10a12,12,0,0,0,1.79,1.77,1,1,0,0,1-.89,0,19.17,19.17,0,0,1-4.2-1.91,1.33,1.33,0,0,1-.78-1.67,98.22,98.22,0,0,0,1.06-18.37c-.23-5.76-.89-11.45-3-16.88a16.62,16.62,0,0,0-3.26-5.58,22,22,0,0,0,.4,2.95,113.49,113.49,0,0,1,1.88,14.09,58.48,58.48,0,0,1-1,14.16c-.44,2.56-1,5.08-1.67,7.6a4,4,0,0,1-1.18,2.45c-.2-.48,0-.87,0-1.26,0-1,.31-1.24-1.17-1.54a50.33,50.33,0,0,1-22.79-11.3c-1.16-1-2.28-2-3.41-3a14,14,0,0,0,2.71,5.46,41.42,41.42,0,0,0,9.74,9.22,82.45,82.45,0,0,0,16.83,9c1.37.55,2.72,1.14,4.18,1.75-2.35,2.74-4.77,5.25-7.23,7.72s-5,4.86-7.68,7.14a68.54,68.54,0,0,1-8.49,6.16l2.57,1.33c-2.26.08-4.43-.17-6.61-.14s-4.49.12-6.73.37-4.15,1-6.27,1.31a4.65,4.65,0,0,1,1.21-.9,2.48,2.48,0,0,0,1.41-2.49,23.78,23.78,0,0,1,2-9.9,15.06,15.06,0,0,0,1.08-9.21,3.42,3.42,0,0,0-.34-1.48c-.29.11-.32.26-.33.4a21.66,21.66,0,0,1-1.87,6.44,4.41,4.41,0,0,1-1.93,2.42c-.95-1.8-1.86-3.57-2.81-5.32a35.16,35.16,0,0,0-3.26-5.26c.07,1.36.52,2.38.5,3.57a4.25,4.25,0,0,1-1.25-1.77,22.08,22.08,0,0,1-1.89-9.91,50.9,50.9,0,0,1,2-11.63c1.37-5,3-9.92,4.49-14.88l1.56-5.16c.05-.18.19-.39,0-.52a.5.5,0,0,0-.67.15,5.64,5.64,0,0,0-.4.63l-2,3.33a91.26,91.26,0,0,0-8.28,18.69,29,29,0,0,0-1,4.2.63.63,0,0,0-.19.61,19.61,19.61,0,0,0-.75,3.78,3,3,0,0,1-1.57,0,9.27,9.27,0,0,0-2.27-.42h0a1.11,1.11,0,0,0-.87-.27h-.06a1,1,0,0,0-.84-.33h0a.56.56,0,0,0-.59-.29h0a1.73,1.73,0,0,0-1.12-.56c-.11.38.45.75,0,1.09s-.61-.14-.91-.25h0a.64.64,0,0,0-.35-.5,9.18,9.18,0,0,1-1.15-4.59q.18-12,.33-24c0-.3,0-.6,0-.89s-.19-.41-.48-.43c-.61,0-.74.27-.8.8-.23,2-.49,4.06-.74,6.09q-.69,5.56-1.39,11.13c-.29,2.32-.61,4.64-.92,7-2.7.06-7.38-1.8-9.07-3.82a6.48,6.48,0,0,1-1.47-5.72,16.46,16.46,0,0,1,2.22-5.19c.13,0,.19-.1.16-.24a.18.18,0,0,0,.11-.22,1.34,1.34,0,0,0,.62-1.15c-.41.33-.73.44-.86.78a13.35,13.35,0,0,0-4.5,4.71,9.14,9.14,0,0,0,1.65,11.59,41.62,41.62,0,0,0,15,9.23,8.37,8.37,0,0,1,1.87.93,46.18,46.18,0,0,1,12.32,11.2,20,20,0,0,1,4,9.68,13.47,13.47,0,0,1-1.13,6.92,2.27,2.27,0,0,1-1.09-.72,61,61,0,0,0-11.82-8.08,21.88,21.88,0,0,0-8.77-2.77c-1.76-.1-1.9,0-2,1.7a15.61,15.61,0,0,0,.82,5.59,32,32,0,0,0,5,9.47,16.85,16.85,0,0,0,8.14,6.33c1.7.56,1.7.57,2.54-1,.11-.22.21-.45.32-.67a.17.17,0,0,0,.15-.22.15.15,0,0,0,.12-.19c.2-.1.35-.34.6-.23s.1.48.15.72l-.18.76a.36.36,0,0,0-.17.44,24.83,24.83,0,0,0-.86,8.09Zm252,223.43v16c0,1.83,0,1.55,1.51,1.55h23.54c1.23,0,1.24,0,1.25-1.18s0-2.5,0-3.75c0-1.84.12-1.59-1.61-1.59h-16.94c-1.08,0-1.09,0-1.1-1,0-1.89,0-3.79,0-5.69,0-1.1,0-1.11,1.18-1.11h15.44c.55,0,1.1,0,1.65,0s.71-.2.7-.71c0-1.2,0-2.4,0-3.6,0-2.16.3-1.89-1.91-1.9-5.35,0-10.7,0-16,0-.76,0-1.07-.19-1-1,.06-1.39,0-2.8,0-4.19,0-.89-.37-2,.18-2.62s1.79-.24,2.71-.24c5.2,0,10.39,0,15.59,0,1.15,0,1.16,0,1.17-1.13,0-1.4,0-2.8,0-4.2,0-1.2,0-1.12-1.16-1.12H2524.1c-1.29,0-1.3,0-1.3,1.3Q2522.79,1324.5,2522.79,1332.59Zm-154.74-18c-.6,0-1.2,0-1.8,0-5.81.41-10.45,2.94-13.46,8a19.74,19.74,0,0,0-1.64,17.43,15.48,15.48,0,0,0,11,10.28,21.13,21.13,0,0,0,9.05.56c6.18-1,10.67-4.16,13.18-10a20.51,20.51,0,0,0,1.15-12.34,16.95,16.95,0,0,0-17.49-13.91Zm59.85,18v17.08c0,.36.16.56.54.56h24.12c.3,0,.6,0,.9,0,.59,0,.78-.25.77-.8,0-1.3,0-2.6,0-3.9,0-2.08.25-1.83-1.83-1.83-5.64,0-11.29,0-16.93,0-.76,0-1-.19-1-1,.06-2,0-3.9,0-5.85,0-.74.15-1.06,1-1,1.75.06,3.5,0,5.24,0,3.95,0,7.9,0,11.84,0,.69,0,1-.15,1-.91-.06-1.19,0-2.39,0-3.59,0-2,.17-1.72-1.79-1.72h-16c-1.15,0-1.16,0-1.17-1.11,0-1.94,0-3.89,0-5.84,0-1.07,0-1.08,1-1.1h17.39c1.32,0,1.33,0,1.33-1.27s0-2.6,0-3.9,0-1.28-1.32-1.28h-23.67c-1.51,0-1.33,0-1.33,1.41C2427.89,1321.86,2427.9,1327.2,2427.9,1332.54Zm-82.67.22v-16.34c0-1.45,0-1.27-1.32-1.27H2340c-1.27,0-1.29,0-1.29,1.3,0,4.15,0,8.3,0,12.44,0,1.1,0,1.13-1.06,1.13h-15.14c-1,0-1,0-1.05-1.12s0-2.19,0-3.29c0-3.15,0-6.3,0-9.45,0-.75-.17-1.07-1-1-1.35.06-2.7,0-4,0-1.77,0-1.57-.2-1.57,1.62q0,15.88,0,31.78c0,.1,0,.2,0,.3,0,1.32,0,1.33,1.26,1.33h4c1.35,0,1.29.07,1.29-1.32q0-5.61,0-11.24c0-1.68-.14-1.49,1.55-1.49h15c.52,0,.73.21.71.7s0,.7,0,1.05c0,3.65,0,7.3,0,10.95,0,1.63.08,1.33,1.4,1.34h3.9c1.19,0,1.21,0,1.21-1.24C2345.24,1343.55,2345.23,1338.15,2345.23,1332.76Zm-92.54,18.34a21.65,21.65,0,0,0,7.64-1.26c5.63-2,8-6.45,7.06-12.25a8.44,8.44,0,0,0-3.68-5.76,17.51,17.51,0,0,0-5.49-2.28,49.08,49.08,0,0,0-5.91-.93,15.28,15.28,0,0,1-4.6-1.27,3.38,3.38,0,0,1-1.09-5.5,5,5,0,0,1,2.63-1.63c4.33-1,8.35-.59,11.58,2.87.31.33.52.52,1,.26,1.35-.73,2.73-1.44,4.12-2.12.49-.24.54-.54.25-.94a17,17,0,0,0-1.7-2.27,13.38,13.38,0,0,0-7.08-3.61,20.71,20.71,0,0,0-11.36.71c-3.16,1.17-5.75,3.08-6.57,6.6-1.07,4.6.42,9.06,5.23,11.1a25.6,25.6,0,0,0,7.08,1.8,20.45,20.45,0,0,1,6.8,1.63,4.21,4.21,0,0,1,.62,7.27,8,8,0,0,1-2.7,1.26,13.45,13.45,0,0,1-5.5.28c-3.23-.47-6-1.73-7.6-4.87-.24-.48-.52-.5-1-.27-1.37.72-2.73,1.45-4.12,2.12-.68.33-.67.72-.38,1.32a12.14,12.14,0,0,0,4.92,5.47A19.72,19.72,0,0,0,2252.69,1351.1Zm168.89-24.58v-10c0-1.35.12-1.34-1.27-1.33h-4c-1.34,0-1.3-.14-1.3,1.29,0,6,0,12,0,18a21.21,21.21,0,0,1-.24,3.28c-.66,4.41-3.37,7-7.8,7.25-4.68.23-8.52-2.13-9.37-7.32a18.6,18.6,0,0,1-.22-3v-14.84c0-1.3,0-2.6,0-3.9,0-.57-.19-.79-.78-.78-1.5,0-3,0-4.49,0-1.33,0-1.3-.09-1.3,1.31,0,6.35,0,12.69,0,19a18.61,18.61,0,0,0,.51,4.46,13.17,13.17,0,0,0,6.81,9,17.87,17.87,0,0,0,13.38,1.26,12.61,12.61,0,0,0,9-8.41,18.52,18.52,0,0,0,1.07-6.16C2421.59,1332.62,2421.58,1329.57,2421.58,1326.52Zm86.27,9.19v-11.83c0-.7,0-1.4,0-2.1,0-.42.14-.66.6-.64h1.05c2.85,0,5.7,0,8.54,0,.71,0,1-.19,1-.93-.05-1.45,0-2.9,0-4.34,0-.59-.22-.82-.79-.78-.35,0-.7,0-1,0h-23.38c-.95,0-1.9,0-2.84,0-.66,0-.88.24-.86.87,0,1.35,0,2.7,0,4,0,1.11,0,1.12,1.17,1.13h8.25c1.8,0,1.62-.27,1.62,1.56,0,3.54,0,7.09,0,10.63,0,5.15,0,10.29,0,15.44,0,1.4,0,1.41,1.34,1.41h4.05c1.31,0,1.32,0,1.32-1.28Q2507.85,1342.3,2507.85,1335.71Zm-30.81-.2c0-4.3,0-8.59,0-12.89,0-1.71-.14-1.47,1.55-1.48,2.9,0,5.79,0,8.69,0,.6,0,.91-.14.89-.83,0-1.44,0-2.89,0-4.34,0-.61-.14-1-.83-.88-.3,0-.6,0-.9,0H2461c-.3,0-.61,0-.9,0-.59-.06-.78.2-.77.78,0,1.49,0,3,0,4.49,0,.57.17.79.77.78,1.6,0,3.2,0,4.79,0s3.1,0,4.65,0c.73,0,1,.25.92,1a8.81,8.81,0,0,0,0,.89v21.28c0,1.7,0,3.4,0,5.09,0,.65.22.87.87.86,1.49,0,3,0,4.49,0,1.26,0,1.26,0,1.27-1.34Zm-191.56-2.88v15.88c0,.35,0,.7,0,1s.19.63.63.62h19.78c1.15,0,2.3,0,3.45,0,.58,0,.79-.2.78-.78,0-1.34,0-2.69,0-4s.07-1.25-1.33-1.26h-15.13c-1.72,0-1.57.1-1.57-1.5v-18.13c0-2.8,0-5.6,0-8.39,0-.8-.25-1-1-1-1.35.05-2.7,0-4,0-1.74,0-1.55-.16-1.55,1.49Zm-12.76,0v12.71c0,1.25,0,2.5,0,3.74,0,.71.11,1.11,1,1.07,1.59-.06,3.19,0,4.79,0,.61,0,1-.15.9-.83,0-.34,0-.69,0-1v-30.23c0-.6,0-1.2,0-1.8,0-1.17,0-1.18-1.26-1.19h-3.44c-1.94,0-1.94,0-1.94,1.86Z" transform="translate(-2098.06 -891.73)"/>
    <path class="cls-2" d="M2698.06,892.11c-.79,0-1.59-.11-2.38-.11H2100.37c-.35,0-.7,0-1,0-.58,0-.82.23-.79.79,0,.35,0,.7,0,1.05q0,297.9,0,595.81c0,.68.08,1.37.13,2.06-.19-.13-.64.29-.61-.3,0-.35,0-.7,0-1.05V891.81h2.17q298.23,0,596.47,0C2697.15,891.83,2697.73,891.48,2698.06,892.11Z" transform="translate(-2098.06 -891.73)"/>
    <path class="cls-3" d="M2292.5,1135.52a22.72,22.72,0,0,0-9.82-1.42,34.42,34.42,0,0,0-10.91,2.89,19,19,0,0,1-5.54,1.72,8.19,8.19,0,0,1-8.76-4,14.56,14.56,0,0,1-1.86-6.85,4.88,4.88,0,0,1,1.67-3.85,22.87,22.87,0,0,1,4.23-3.06c3.22-1.9,5.26-4.8,7.11-7.9l.7-1.14a.46.46,0,0,0,.3-.5l0-.09a.27.27,0,0,0,.21-.33l.13-.29a.23.23,0,0,0,.18-.29h0a.49.49,0,0,0,.28-.6h0a.52.52,0,0,0,.3-.6h0c.19-.05.29-.12.11-.3a24.83,24.83,0,0,1,.86-8.09.36.36,0,0,0,.17-.44l.18-.76a18.08,18.08,0,0,0,1.21-2.74,4.71,4.71,0,0,0-2,2.25.15.15,0,0,1-.12.19c-.13,0-.17.09-.15.22s-.21.45-.32.67c-.84,1.61-.84,1.6-2.54,1a16.85,16.85,0,0,1-8.14-6.33,32,32,0,0,1-5-9.47,15.61,15.61,0,0,1-.82-5.59c.08-1.71.22-1.8,2-1.7a21.88,21.88,0,0,1,8.77,2.77,61,61,0,0,1,11.82,8.08,2.27,2.27,0,0,0,1.09.72,13.47,13.47,0,0,0,1.13-6.92,20,20,0,0,0-4-9.68,46.18,46.18,0,0,0-12.32-11.2,8.37,8.37,0,0,0-1.87-.93,41.62,41.62,0,0,1-15-9.23,9.14,9.14,0,0,1-1.65-11.59,13.35,13.35,0,0,1,4.5-4.71l.24.37a.18.18,0,0,1-.11.22.19.19,0,0,0-.16.24,16.46,16.46,0,0,0-2.22,5.19,6.48,6.48,0,0,0,1.47,5.72c1.69,2,6.37,3.88,9.07,3.82.31-2.31.63-4.63.92-7q.7-5.57,1.39-11.13c.25-2,.51-4.06.74-6.09.06-.53.19-.85.8-.8.29,0,.47.12.48.43s0,.59,0,.89q-.16,12-.33,24a9.18,9.18,0,0,0,1.15,4.59.43.43,0,0,0,.35.5h0a3.87,3.87,0,0,0,2.59,2,8.44,8.44,0,0,0-.87-1.54c-.29-.44-.06-.61.35-.69h0a.49.49,0,0,0,.59.29h0a.72.72,0,0,0,.84.33h.05a.74.74,0,0,0,.88.27h0c1,.64,2.21.59,3.32.86a.43.43,0,0,0,.52-.39,19.61,19.61,0,0,1,.75-3.78.49.49,0,0,0,.19-.61,29,29,0,0,1,1-4.2,91.26,91.26,0,0,1,8.28-18.69l2-3.33a5.64,5.64,0,0,1,.4-.63.5.5,0,0,1,.67-.15c.24.13.1.34,0,.52l-1.56,5.16c-1.51,5-3.12,9.89-4.49,14.88a50.9,50.9,0,0,0-2,11.63,22.08,22.08,0,0,0,1.89,9.91,4.25,4.25,0,0,0,1.25,1.77c0-1.19-.43-2.21-.5-3.57a35.16,35.16,0,0,1,3.26,5.26c.95,1.75,1.86,3.52,2.81,5.32a4.41,4.41,0,0,0,1.93-2.42,21.66,21.66,0,0,0,1.87-6.44c0-.14,0-.29.33-.4a3.42,3.42,0,0,1,.34,1.48,15.06,15.06,0,0,1-1.08,9.21,23.78,23.78,0,0,0-2,9.9,2.48,2.48,0,0,1-1.41,2.49,4.65,4.65,0,0,0-1.21.9c2.12-.31,4.14-1.08,6.27-1.31s4.48-.33,6.73-.37,4.35.22,6.61.14l-2.57-1.33a68.54,68.54,0,0,0,8.49-6.16c2.66-2.28,5.21-4.66,7.68-7.14s4.88-5,7.23-7.72c-1.46-.61-2.81-1.2-4.18-1.75a82.45,82.45,0,0,1-16.83-9,41.42,41.42,0,0,1-9.74-9.22,14,14,0,0,1-2.71-5.46c1.13,1,2.25,2,3.41,3a50.33,50.33,0,0,0,22.79,11.3c1.48.3,1.2.51,1.17,1.54,0,.39-.22.78,0,1.26A4,4,0,0,0,2319,1057c.62-2.52,1.23-5,1.67-7.6a58.48,58.48,0,0,0,1-14.16,113.49,113.49,0,0,0-1.88-14.09,22,22,0,0,1-.4-2.95,16.62,16.62,0,0,1,3.26,5.58c2.1,5.43,2.76,11.12,3,16.88a98.22,98.22,0,0,1-1.06,18.37,1.33,1.33,0,0,0,.78,1.67,19.17,19.17,0,0,0,4.2,1.91,1,1,0,0,0,.89,0,12,12,0,0,1-1.79-1.77c2-3.08,2.95-6.55,3.89-10,1.47-5.39,2.47-10.89,3.59-16.36.42-2,.87-4.06,1.39-6.07a11.49,11.49,0,0,1,0,2.81c-.14,2.94-.32,5.89-.41,8.83a90.56,90.56,0,0,1-2.43,19.88,35.74,35.74,0,0,1-6.65,13.61,32.65,32.65,0,0,1-5.77,5.62,88.49,88.49,0,0,0-7.12,6.3,46.44,46.44,0,0,0,5.35-3.52,3.07,3.07,0,0,0,.62-.42c1.73-2,4.1-1.7,6.37-1.7a.8.8,0,0,1,.87.64,18.35,18.35,0,0,1-.85,14.4,15.29,15.29,0,0,1-5.73,5.78,42.28,42.28,0,0,1-13.87,5.4,1.47,1.47,0,0,0-1,.42,52.49,52.49,0,0,0,7.31,0,3.88,3.88,0,0,1,3.28,1.25c3.73,3.67,7.65,7.15,11.36,10.86,2.15,2.14,4.17,4.42,6.51,6.39,4.07,3.43,8.45,6.34,13.69,7.71a12.59,12.59,0,0,0,3.74.39c-3.13-1.56-6.4-2.89-8.78-5.59.22-.51.63-.3.93-.32a175.31,175.31,0,0,1,25,.63,63.16,63.16,0,0,1,25.74,7.73,35.81,35.81,0,0,1,6.46,4.31,2,2,0,1,0,0-1,82.79,82.79,0,0,0-8.84-8c.36-.43.79-.33,1.17-.38a162,162,0,0,1,25.86-1.14,103.1,103.1,0,0,1,14.13,1.52,70.19,70.19,0,0,1,13.95,3.85,39.26,39.26,0,0,1,14.46,9.35,28,28,0,0,1,7.67,16.35,46.92,46.92,0,0,1-1.6,17.92,86.61,86.61,0,0,1-5,13.12c-2.5,5.43-5.18,10.78-7.51,16.29-1.33,3.16-2.39,6.44-3.51,9.68a.21.21,0,0,0-.11.3l-.14.6c-.28.19-.25.46-.22.74a1.11,1.11,0,0,1-.19.83,3.49,3.49,0,0,0-.39,2.51,8.66,8.66,0,0,0,.95-2.54,66.22,66.22,0,0,1,4.82-8.89c.55,0,.54.48.66.76a45,45,0,0,0,3.89,7.07,2.78,2.78,0,0,1,.53,1.5c.18,4.74.7,9.46,1.28,14.17q1,7.8,2,15.59,1.23,9.36,2.53,18.7c.61,4.45,1.27,8.89,1.89,13.34.19,1.36.16,1.37-1.27,1.51l-10.29,1.06c-1.44.15-2-.42-1.54-1.82a12.82,12.82,0,0,1,2.89-4.68,13.16,13.16,0,0,0,3-10.17c-.61,2.11-1.11,4.26-2.69,6.24-.18-1.77-.32-3.29-.48-4.81a92.4,92.4,0,0,0-2-11.19,217.93,217.93,0,0,0-7.53-24.88c-.07-.18-.09-.4-.37-.48a13.31,13.31,0,0,0-.32,3.39,105.1,105.1,0,0,1-2.59,23.17,121.72,121.72,0,0,1-9.43,26.73c-.52,1.08-1.13,2.11-1.66,3.19a2.21,2.21,0,0,1-1.58,1.23,10.38,10.38,0,0,1-1.77.29,28.74,28.74,0,0,1-7.93-.68c-.05-.63.45-1,.73-1.39a64.41,64.41,0,0,0,9.25-21.13,99.13,99.13,0,0,0,2.65-19.25c0-.45.05-.89.08-1.34h.5a35.18,35.18,0,0,1,1.26,6.59c.1.83.22,1.66.4,2.48.44-6.14.2-12.21-1.77-18.1-.67-2-1.69-3.92-2.39-6a141.29,141.29,0,0,1-4.91-17.83,3.48,3.48,0,0,0-1-2.59l.46,2.66c.24,2,.48,4,.74,6-.84-.13-1.23-.77-1.69-1.22a118.64,118.64,0,0,1-8.79-9.56c-.73-.9-.74-.91.23-1.53a24.87,24.87,0,0,0,5.22-4.2,20.2,20.2,0,0,0,1.29-1.64,2.79,2.79,0,0,0,.5-2.11,61.12,61.12,0,0,1-.33-11.94,38.35,38.35,0,0,1,3.86-15.39c.11-.22.25-.42.38-.64a2.85,2.85,0,0,0,.91-1.51,2.23,2.23,0,0,0-1.23,1.23c-.73,1.42-1.71,2.68-2.44,4.1-4,7.85-5.08,16.2-4.3,24.87.27,3,.77,2.22-1.89,3.58a44.87,44.87,0,0,1-12.23,3.84c-8,1.54-16.17,1.65-24.28,1.4-.28-.43,0-.73.08-1a36.17,36.17,0,0,0,1.82-8.47,27.38,27.38,0,0,1,4.72-12.93.61.61,0,0,0,.1-.69,11.29,11.29,0,0,0-3.22,2.76,25.62,25.62,0,0,0-3.76,6.61c-1.29,3.19-2.51,6.41-3.83,9.59a25.69,25.69,0,0,1-7,9.22c-5.44,4.85-11.16,9.36-17,13.67l-6,4.43.13.27,9.76-4a3.87,3.87,0,0,1,0,1.94c-1,8.62-2,17.26-3.11,25.87-1.17,9-2.32,17.91-3.62,26.85-.88,6.08-1.69,12.16-2.53,18.24-.18,1.24-.19,1.25-1.48,1.25-4.3,0-8.6,0-12.89,0-.75,0-1.39,0-1.69-.87a3.43,3.43,0,0,1,.36-2.73.82.82,0,0,1,.7-.15,8.42,8.42,0,0,0,1.94-.06,5.8,5.8,0,0,0,5-5.14c-.57,0-.58.54-.83.82a6,6,0,0,1-2.26,1.89,3.56,3.56,0,0,1-4.4-1.15A18,18,0,0,1,2334,1289a8.14,8.14,0,0,0-1.08-2.43,25.64,25.64,0,0,1-3.63-8.8,4.73,4.73,0,0,1,.06-2.36,28.81,28.81,0,0,0,.74-5.93c.63-8.17.74-16.36.88-24.55,0-2.15,0-4.3,0-6.45a17.47,17.47,0,0,1,1.45-6.68,51.94,51.94,0,0,1,6-10.5,82,82,0,0,1,5.52-7.08,8.6,8.6,0,0,0,.61-1l-4.32,2.74c-.78-2.64-1.54-5.18-2.36-7.94a26.31,26.31,0,0,0,4.9.23,1.68,1.68,0,0,0-1.15-.54,29.77,29.77,0,0,1-17.4-12.12c-3.59-5-5.28-10.69-6.33-16.63a50.75,50.75,0,0,1-.66-14.61,1.71,1.71,0,0,0-.09-.76c-1.7,4.43-2,9.09-2.29,13.79-.58.12-.91-.34-1.28-.61a50.51,50.51,0,0,1-8.83-8.27,88.32,88.32,0,0,1-10.51-15.79,118.53,118.53,0,0,1-7.15-16.19,10.45,10.45,0,0,1,5.6-.1,6.75,6.75,0,0,0,2.79.46,2.49,2.49,0,0,0-1.59-.84l-.35-.19a.26.26,0,0,0-.32-.12.21.21,0,0,1-.25-.09C2292.86,1135.49,2292.7,1135.48,2292.5,1135.52Zm52.4,102.24c-4.14,2.09-7.21,6.16-7.37,9.73.92-1.72,1.54-3.66,3.72-4.49a48.93,48.93,0,0,0-.85,6.77c-.69,8.44-.24,16.88.28,25.31a1,1,0,0,0,.55,1,10.05,10.05,0,0,1,3.18,3.08,1.65,1.65,0,0,0,.17-1q.55-11.67,1.09-23.35a86.23,86.23,0,0,0,.06-10A64.36,64.36,0,0,0,2344.9,1237.76Z" transform="translate(-2098.06 -891.73)"/>
    <path class="cls-2" d="M2522.79,1332.59q0-8.08,0-16.19c0-1.29,0-1.3,1.3-1.3h23.83c1.18,0,1.17-.08,1.16,1.12,0,1.4,0,2.8,0,4.2,0,1.11,0,1.13-1.17,1.13-5.2,0-10.39,0-15.59,0-.92,0-2.09-.45-2.71.24s-.16,1.73-.18,2.62c0,1.39,0,2.8,0,4.19,0,.81.27,1,1,1,5.34,0,10.69,0,16,0,2.21,0,1.89-.26,1.91,1.9,0,1.2,0,2.4,0,3.6,0,.51-.19.73-.7.71s-1.1,0-1.65,0h-15.44c-1.16,0-1.17,0-1.18,1.11,0,1.9,0,3.8,0,5.69,0,1,0,1,1.1,1h16.94c1.73,0,1.61-.25,1.61,1.59,0,1.25,0,2.5,0,3.75s0,1.18-1.25,1.18H2524.3c-1.54,0-1.51.28-1.51-1.55Z" transform="translate(-2098.06 -891.73)"/>
    <path class="cls-2" d="M2368.05,1314.54a16.95,16.95,0,0,1,17.49,13.91,20.51,20.51,0,0,1-1.15,12.34c-2.51,5.84-7,9-13.18,10a21.13,21.13,0,0,1-9.05-.56,15.48,15.48,0,0,1-11-10.28,19.74,19.74,0,0,1,1.64-17.43c3-5,7.65-7.57,13.46-8C2366.85,1314.5,2367.45,1314.54,2368.05,1314.54Zm11.38,18.12c0-.52,0-1.12-.11-1.71-.6-4.3-2.4-7.81-6.63-9.57-4.93-2.05-12.65-1.12-15.38,6.4a14.6,14.6,0,0,0,0,10,9.91,9.91,0,0,0,5.91,6.36,13,13,0,0,0,7.93.49,9.86,9.86,0,0,0,6.37-4.57A14.34,14.34,0,0,0,2379.43,1332.66Z" transform="translate(-2098.06 -891.73)"/>
    <path class="cls-2" d="M2427.9,1332.54c0-5.34,0-10.68,0-16,0-1.46-.18-1.41,1.33-1.41h23.67c1.31,0,1.32,0,1.32,1.28s0,2.6,0,3.9,0,1.27-1.33,1.27H2435.5c-1,0-1,0-1,1.1,0,1.95,0,3.9,0,5.84,0,1.1,0,1.11,1.17,1.11h16c2,0,1.79-.27,1.79,1.72,0,1.2,0,2.4,0,3.59,0,.76-.27.91-1,.91-3.94,0-7.89,0-11.84,0-1.74,0-3.49,0-5.24,0-.83,0-1,.29-1,1,0,2,.05,3.9,0,5.85,0,.8.26,1,1,1,5.64,0,11.29,0,16.93,0,2.08,0,1.82-.25,1.83,1.83,0,1.3,0,2.6,0,3.9,0,.55-.18.84-.77.8-.3,0-.6,0-.9,0h-24.12c-.38,0-.54-.2-.54-.56v-17.08Z" transform="translate(-2098.06 -891.73)"/>
    <path class="cls-2" d="M2345.23,1332.76c0,5.39,0,10.79,0,16.18,0,1.23,0,1.23-1.21,1.24h-3.9c-1.32,0-1.4.29-1.4-1.34,0-3.65,0-7.3,0-10.95,0-.35,0-.7,0-1.05s-.19-.73-.71-.7h-15c-1.69,0-1.55-.19-1.55,1.49q0,5.63,0,11.24c0,1.39.06,1.32-1.29,1.32h-4c-1.25,0-1.25,0-1.26-1.33,0-.1,0-.2,0-.3q0-15.9,0-31.78c0-1.82-.2-1.61,1.57-1.62,1.35,0,2.7,0,4,0,.82,0,1,.28,1,1,0,3.15,0,6.3,0,9.45,0,1.1,0,2.2,0,3.29s0,1.12,1.05,1.12h15.14c1,0,1.05,0,1.06-1.13,0-4.14,0-8.29,0-12.44,0-1.29,0-1.3,1.29-1.3h3.9c1.29,0,1.33-.18,1.32,1.27v16.34Z" transform="translate(-2098.06 -891.73)"/>
    <path class="cls-2" d="M2252.69,1351.1a19.72,19.72,0,0,1-9.8-2.27,12.14,12.14,0,0,1-4.92-5.47c-.29-.6-.3-1,.38-1.32,1.39-.67,2.75-1.4,4.12-2.12.43-.23.71-.21,1,.27,1.56,3.14,4.37,4.4,7.6,4.87a13.45,13.45,0,0,0,5.5-.28,8,8,0,0,0,2.7-1.26,4.21,4.21,0,0,0-.62-7.27,20.45,20.45,0,0,0-6.8-1.63,25.6,25.6,0,0,1-7.08-1.8c-4.81-2-6.3-6.5-5.23-11.1.82-3.52,3.41-5.43,6.57-6.6a20.71,20.71,0,0,1,11.36-.71,13.38,13.38,0,0,1,7.08,3.61,17,17,0,0,1,1.7,2.27c.29.4.24.7-.25.94-1.39.68-2.77,1.39-4.12,2.12-.48.26-.69.07-1-.26-3.23-3.46-7.25-3.85-11.58-2.87a5,5,0,0,0-2.63,1.63,3.38,3.38,0,0,0,1.09,5.5,15.28,15.28,0,0,0,4.6,1.27,49.08,49.08,0,0,1,5.91.93,17.51,17.51,0,0,1,5.49,2.28,8.44,8.44,0,0,1,3.68,5.76c.93,5.8-1.43,10.26-7.06,12.25A21.65,21.65,0,0,1,2252.69,1351.1Z" transform="translate(-2098.06 -891.73)"/>
    <path class="cls-2" d="M2421.58,1326.52c0,3,0,6.1,0,9.15a18.52,18.52,0,0,1-1.07,6.16,12.61,12.61,0,0,1-9,8.41,17.87,17.87,0,0,1-13.38-1.26,13.17,13.17,0,0,1-6.81-9,18.61,18.61,0,0,1-.51-4.46c0-6.35,0-12.69,0-19,0-1.4,0-1.32,1.3-1.31,1.5,0,3,0,4.49,0,.59,0,.79.21.78.78,0,1.3,0,2.6,0,3.9v14.84a18.6,18.6,0,0,0,.22,3c.85,5.19,4.69,7.55,9.37,7.32,4.43-.23,7.14-2.84,7.8-7.25a21.21,21.21,0,0,0,.24-3.28c0-6,0-12,0-18,0-1.43,0-1.29,1.3-1.29h4c1.39,0,1.27,0,1.27,1.33Z" transform="translate(-2098.06 -891.73)"/>
    <path class="cls-2" d="M2507.85,1335.71q0,6.6,0,13.19c0,1.27,0,1.28-1.32,1.28h-4.05c-1.34,0-1.34,0-1.34-1.41,0-5.15,0-10.29,0-15.44,0-3.54,0-7.09,0-10.63,0-1.83.18-1.55-1.62-1.56h-8.25c-1.15,0-1.16,0-1.17-1.13,0-1.35,0-2.7,0-4,0-.63.2-.9.86-.87.94,0,1.89,0,2.84,0h23.38c.35,0,.7,0,1,0,.57,0,.8.19.79.78,0,1.44,0,2.89,0,4.34,0,.74-.25.94-1,.93-2.84,0-5.69,0-8.54,0h-1.05c-.46,0-.61.22-.6.64,0,.7,0,1.4,0,2.1Z" transform="translate(-2098.06 -891.73)"/>
    <path class="cls-2" d="M2477,1335.51v13.33c0,1.33,0,1.34-1.27,1.34-1.5,0-3,0-4.49,0-.65,0-.88-.21-.87-.86,0-1.69,0-3.39,0-5.09V1323a8.81,8.81,0,0,1,0-.89c.08-.71-.19-1-.92-1-1.55.05-3.1,0-4.65,0s-3.19,0-4.79,0c-.6,0-.78-.21-.77-.78,0-1.5,0-3,0-4.49,0-.58.18-.84.77-.78.29,0,.6,0,.9,0h25.47c.3,0,.6,0,.9,0,.69-.08.84.27.83.88,0,1.45,0,2.9,0,4.34,0,.69-.29.83-.89.83-2.9,0-5.79,0-8.69,0-1.69,0-1.55-.23-1.55,1.48C2477,1326.92,2477,1331.21,2477,1335.51Z" transform="translate(-2098.06 -891.73)"/>
    <path class="cls-2" d="M2285.48,1332.63v-16c0-1.65-.19-1.48,1.55-1.49,1.35,0,2.7,0,4,0,.77,0,1,.2,1,1,0,2.79,0,5.59,0,8.39v18.13c0,1.6-.15,1.5,1.57,1.5h15.13c1.4,0,1.34-.11,1.33,1.26s0,2.7,0,4c0,.58-.2.8-.78.78-1.15,0-2.3,0-3.45,0h-19.78c-.44,0-.64-.19-.63-.62s0-.7,0-1Z" transform="translate(-2098.06 -891.73)"/>
    <path class="cls-2" d="M2272.72,1332.68V1317c0-1.86,0-1.86,1.94-1.86h3.44c1.24,0,1.24,0,1.26,1.19,0,.6,0,1.2,0,1.8v30.23c0,.35,0,.7,0,1,.05.68-.29.84-.9.83-1.6,0-3.2,0-4.79,0-.86,0-1-.36-1-1.07,0-1.24,0-2.49,0-3.74Z" transform="translate(-2098.06 -891.73)"/>
    <path class="cls-2" d="M2264.47,1056.09c-.41.08-.64.25-.35.69a8.44,8.44,0,0,1,.87,1.54,3.87,3.87,0,0,1-2.59-2c.3.11.5.53.91.25s-.07-.71,0-1.09A1.73,1.73,0,0,1,2264.47,1056.09Z" transform="translate(-2098.06 -891.73)"/>
    <path class="cls-2" d="M2402.12,1138.84a2,2,0,1,1,0,1C2402.79,1139.49,2402.11,1139.16,2402.12,1138.84Z" transform="translate(-2098.06 -891.73)"/>
    <path class="cls-2" d="M2271.34,1099.08a4.71,4.71,0,0,1,2-2.25,18.08,18.08,0,0,1-1.21,2.74c-.05-.24.21-.56-.15-.72S2271.54,1099,2271.34,1099.08Z" transform="translate(-2098.06 -891.73)"/>
    <path class="cls-2" d="M2270.73,1057.48a.43.43,0,0,1-.52.39c-1.11-.27-2.31-.22-3.32-.86a9.27,9.27,0,0,1,2.27.42A3,3,0,0,0,2270.73,1057.48Z" transform="translate(-2098.06 -891.73)"/>
    <path class="cls-2" d="M2430.12,1214.34l-.46-2.66a3.48,3.48,0,0,1,1,2.59A.34.34,0,0,0,2430.12,1214.34Z" transform="translate(-2098.06 -891.73)"/>
    <path class="cls-2" d="M2452.81,1219.85a8.66,8.66,0,0,1-.95,2.54,3.49,3.49,0,0,1,.39-2.51A.56.56,0,0,0,2452.81,1219.85Z" transform="translate(-2098.06 -891.73)"/>
    <path class="cls-2" d="M2293.86,1136.11a2.49,2.49,0,0,1,1.59.84,6.75,6.75,0,0,1-2.79-.46h.88C2293.79,1136.47,2293.88,1136.34,2293.86,1136.11Z" transform="translate(-2098.06 -891.73)"/>
    <path class="cls-2" d="M2438.05,1247.08h-.5a3.24,3.24,0,0,1,0-1.42A1.62,1.62,0,0,1,2438.05,1247.08Z" transform="translate(-2098.06 -891.73)"/>
    <path class="cls-2" d="M2248.85,1035.79l-.24-.37c.13-.34.45-.45.86-.78A1.34,1.34,0,0,1,2248.85,1035.79Z" transform="translate(-2098.06 -891.73)"/>
    <path class="cls-2" d="M2431.21,1171.84a2.23,2.23,0,0,1,1.23-1.23,2.85,2.85,0,0,1-.91,1.51C2431.48,1172,2431.42,1171.82,2431.21,1171.84Z" transform="translate(-2098.06 -891.73)"/>
    <path class="cls-2" d="M2265.93,1056.72a.72.72,0,0,1-.84-.33A1,1,0,0,1,2265.93,1056.72Z" transform="translate(-2098.06 -891.73)"/>
    <path class="cls-2" d="M2452.44,1219.05c0-.28-.06-.55.22-.74A1.15,1.15,0,0,1,2452.44,1219.05Z" transform="translate(-2098.06 -891.73)"/>
    <path class="cls-2" d="M2266.86,1057a.74.74,0,0,1-.88-.27A1.13,1.13,0,0,1,2266.86,1057Z" transform="translate(-2098.06 -891.73)"/>
    <path class="cls-2" d="M2271.67,1053.09a.49.49,0,0,1-.19.61A.63.63,0,0,1,2271.67,1053.09Z" transform="translate(-2098.06 -891.73)"/>
    <path class="cls-2" d="M2262.41,1056.38a.43.43,0,0,1-.35-.5A.64.64,0,0,1,2262.41,1056.38Z" transform="translate(-2098.06 -891.73)"/>
    <path class="cls-2" d="M2265.08,1056.39a.49.49,0,0,1-.59-.29A.56.56,0,0,1,2265.08,1056.39Z" transform="translate(-2098.06 -891.73)"/>
    <path class="cls-2" d="M2293.19,1135.8a.26.26,0,0,1,.32.12A.25.25,0,0,1,2293.19,1135.8Z" transform="translate(-2098.06 -891.73)"/>
    <path class="cls-2" d="M2292.5,1135.52c.2,0,.36,0,.44.19A.47.47,0,0,1,2292.5,1135.52Z" transform="translate(-2098.06 -891.73)"/>
    <path class="cls-2" d="M2269.62,1111.37a.46.46,0,0,1-.3.5C2269.29,1111.62,2269.44,1111.49,2269.62,1111.37Z" transform="translate(-2098.06 -891.73)"/>
    <path class="cls-2" d="M2270.47,1109.76a.49.49,0,0,1-.28.6A.68.68,0,0,1,2270.47,1109.76Z" transform="translate(-2098.06 -891.73)"/>
    <path class="cls-2" d="M2270.77,1109.16a.52.52,0,0,1-.3.6A.6.6,0,0,1,2270.77,1109.16Z" transform="translate(-2098.06 -891.73)"/>
    <path class="cls-2" d="M2248.58,1036.25a.19.19,0,0,1,.16-.24C2248.77,1036.15,2248.71,1036.22,2248.58,1036.25Z" transform="translate(-2098.06 -891.73)"/>
    <path class="cls-2" d="M2452.8,1217.71a.21.21,0,0,1,.11-.3C2453,1217.55,2452.92,1217.64,2452.8,1217.71Z" transform="translate(-2098.06 -891.73)"/>
    <path class="cls-2" d="M2270.18,1110.37a.23.23,0,0,1-.18.29A.24.24,0,0,1,2270.18,1110.37Z" transform="translate(-2098.06 -891.73)"/>
    <path class="cls-2" d="M2269.87,1111a.27.27,0,0,1-.21.33A.29.29,0,0,1,2269.87,1111Z" transform="translate(-2098.06 -891.73)"/>
    <path class="cls-2" d="M2270.88,1108.86c.18.18.08.25-.11.3Z" transform="translate(-2098.06 -891.73)"/>
    <path class="cls-2" d="M2271.91,1100.33a.36.36,0,0,1-.17.44A.36.36,0,0,1,2271.91,1100.33Z" transform="translate(-2098.06 -891.73)"/>
    <path class="cls-2" d="M2271.07,1099.49c0-.13,0-.2.15-.22A.17.17,0,0,1,2271.07,1099.49Z" transform="translate(-2098.06 -891.73)"/>
    <path class="cls-1" d="M2344.9,1237.76a64.36,64.36,0,0,1,.83,7,86.23,86.23,0,0,1-.06,10q-.52,11.67-1.09,23.35a1.65,1.65,0,0,1-.17,1,10.05,10.05,0,0,0-3.18-3.08,1,1,0,0,1-.55-1c-.52-8.43-1-16.87-.28-25.31a48.93,48.93,0,0,1,.85-6.77c-2.18.83-2.8,2.77-3.72,4.49C2337.69,1243.92,2340.76,1239.85,2344.9,1237.76Z" transform="translate(-2098.06 -891.73)"/>
    <path class="cls-1" d="M2379.43,1332.66a14.34,14.34,0,0,1-1.9,7.37,9.86,9.86,0,0,1-6.37,4.57,13,13,0,0,1-7.93-.49,9.91,9.91,0,0,1-5.91-6.36,14.6,14.6,0,0,1,0-10c2.73-7.52,10.45-8.45,15.38-6.4,4.23,1.76,6,5.27,6.63,9.57C2379.41,1331.54,2379.4,1332.14,2379.43,1332.66Z" transform="translate(-2098.06 -891.73)"/>
  </g>
</svg>
